<?xml version="1.0" encoding="UTF-8"?>
<!DOCTYPE svg PUBLIC "-//W3C//DTD SVG 1.1//EN" "http://www.w3.org/Graphics/SVG/1.1/DTD/svg11.dtd">
<svg version="1.2" width="262.5mm" height="371.25mm" viewBox="0 0 26250 37125" preserveAspectRatio="xMidYMid" fill-rule="evenodd" stroke-width="28.222" stroke-linejoin="round" xmlns="http://www.w3.org/2000/svg" xmlns:ooo="http://xml.openoffice.org/svg/export" xmlns:xlink="http://www.w3.org/1999/xlink" xmlns:presentation="http://sun.com/xmlns/staroffice/presentation" xmlns:smil="http://www.w3.org/2001/SMIL20/" xmlns:anim="urn:oasis:names:tc:opendocument:xmlns:animation:1.0" xml:space="preserve">
 <defs class="ClipPathGroup">
  <clipPath id="presentation_clip_path" clipPathUnits="userSpaceOnUse">
   <rect x="0" y="0" width="26250" height="37125"/>
  </clipPath>
  <clipPath id="presentation_clip_path_shrink" clipPathUnits="userSpaceOnUse">
   <rect x="26" y="37" width="26198" height="37051"/>
  </clipPath>
 </defs>
 <defs class="TextShapeIndex">
  <g ooo:slide="id1" ooo:id-list="id3 id4 id5 id6"/>
 </defs>
 <defs class="EmbeddedBulletChars">
  <g id="bullet-char-template-57356" transform="scale(0.00048828125,-0.00048828125)">
   <path d="M 580,1141 L 1163,571 580,0 -4,571 580,1141 Z"/>
  </g>
  <g id="bullet-char-template-57354" transform="scale(0.00048828125,-0.00048828125)">
   <path d="M 8,1128 L 1137,1128 1137,0 8,0 8,1128 Z"/>
  </g>
  <g id="bullet-char-template-10146" transform="scale(0.00048828125,-0.00048828125)">
   <path d="M 174,0 L 602,739 174,1481 1456,739 174,0 Z M 1358,739 L 309,1346 659,739 1358,739 Z"/>
  </g>
  <g id="bullet-char-template-10132" transform="scale(0.00048828125,-0.00048828125)">
   <path d="M 2015,739 L 1276,0 717,0 1260,543 174,543 174,936 1260,936 717,1481 1274,1481 2015,739 Z"/>
  </g>
  <g id="bullet-char-template-10007" transform="scale(0.00048828125,-0.00048828125)">
   <path d="M 0,-2 C -7,14 -16,27 -25,37 L 356,567 C 262,823 215,952 215,954 215,979 228,992 255,992 264,992 276,990 289,987 310,991 331,999 354,1012 L 381,999 492,748 772,1049 836,1024 860,1049 C 881,1039 901,1025 922,1006 886,937 835,863 770,784 769,783 710,716 594,584 L 774,223 C 774,196 753,168 711,139 L 727,119 C 717,90 699,76 672,76 641,76 570,178 457,381 L 164,-76 C 142,-110 111,-127 72,-127 30,-127 9,-110 8,-76 1,-67 -2,-52 -2,-32 -2,-23 -1,-13 0,-2 Z"/>
  </g>
  <g id="bullet-char-template-10004" transform="scale(0.00048828125,-0.00048828125)">
   <path d="M 285,-33 C 182,-33 111,30 74,156 52,228 41,333 41,471 41,549 55,616 82,672 116,743 169,778 240,778 293,778 328,747 346,684 L 369,508 C 377,444 397,411 428,410 L 1163,1116 C 1174,1127 1196,1133 1229,1133 1271,1133 1292,1118 1292,1087 L 1292,965 C 1292,929 1282,901 1262,881 L 442,47 C 390,-6 338,-33 285,-33 Z"/>
  </g>
  <g id="bullet-char-template-9679" transform="scale(0.00048828125,-0.00048828125)">
   <path d="M 813,0 C 632,0 489,54 383,161 276,268 223,411 223,592 223,773 276,916 383,1023 489,1130 632,1184 813,1184 992,1184 1136,1130 1245,1023 1353,916 1407,772 1407,592 1407,412 1353,268 1245,161 1136,54 992,0 813,0 Z"/>
  </g>
  <g id="bullet-char-template-8226" transform="scale(0.00048828125,-0.00048828125)">
   <path d="M 346,457 C 273,457 209,483 155,535 101,586 74,649 74,723 74,796 101,859 155,911 209,963 273,989 346,989 419,989 480,963 531,910 582,859 608,796 608,723 608,648 583,586 532,535 482,483 420,457 346,457 Z"/>
  </g>
  <g id="bullet-char-template-8211" transform="scale(0.00048828125,-0.00048828125)">
   <path d="M -4,459 L 1135,459 1135,606 -4,606 -4,459 Z"/>
  </g>
  <g id="bullet-char-template-61548" transform="scale(0.00048828125,-0.00048828125)">
   <path d="M 173,740 C 173,903 231,1043 346,1159 462,1274 601,1332 765,1332 928,1332 1067,1274 1183,1159 1299,1043 1357,903 1357,740 1357,577 1299,437 1183,322 1067,206 928,148 765,148 601,148 462,206 346,322 231,437 173,577 173,740 Z"/>
  </g>
 </defs>
 <defs class="TextEmbeddedBitmaps"/>
 <g>
  <g id="id2" class="Master_Slide">
   <g id="bg-id2" class="Background"/>
   <g id="bo-id2" class="BackgroundObjects"/>
  </g>
 </g>
 <g class="SlideGroup">
  <g>
   <g id="container-id1">
    <g id="id1" class="Slide" clip-path="url(#presentation_clip_path)">
     <g class="Page">
      <g class="com.sun.star.drawing.PolyPolygonShape">
       <g id="id3">
        <rect class="BoundingBox" stroke="none" fill="none" x="0" y="0" width="26252" height="26252"/>
        <g>
         <defs>
          <linearGradient id="gradient1" x1="13125" y1="0" x2="13125" y2="26251" gradientUnits="userSpaceOnUse">
           <stop offset="0" style="stop-color:rgb(173,197,231)"/>
           <stop offset="1" style="stop-color:rgb(0,80,143)"/>
          </linearGradient>
         </defs>
         <path style="fill:url(#gradient1)" d="M 0,0 L 26251,0 26251,26251 0,26251 0,0 Z"/>
        </g>
       </g>
      </g>
      <g class="com.sun.star.drawing.ClosedBezierShape">
       <g id="id4">
        <rect class="BoundingBox" stroke="none" fill="none" x="6654" y="15201" width="12944" height="5972"/>
        <path fill="rgb(255,255,255)" stroke="none" d="M 18776,15201 C 18625,15201 18496,15235 18366,15311 18235,15386 18141,15480 18065,15611 17990,15742 17955,15870 17955,16021 L 17955,18145 C 17955,18908 17334,19531 16570,19531 L 9681,19531 C 9426,19530 9209,19472 8989,19345 8767,19217 8608,19058 8481,18837 8353,18616 8295,18400 8295,18145 L 8295,16021 C 8295,15870 8260,15742 8185,15611 8109,15480 8015,15386 7885,15311 7754,15235 7625,15201 7474,15201 7323,15201 7195,15235 7064,15311 6933,15386 6839,15480 6764,15611 6688,15742 6654,15870 6654,16021 L 6654,18145 C 6655,18701 6782,19174 7060,19657 7339,20140 7686,20487 8169,20766 8651,21044 9124,21171 9681,21172 L 16571,21172 C 17127,21171 17600,21044 18082,20766 18565,20487 18913,20140 19191,19657 19470,19174 19597,18701 19597,18145 L 19597,16021 C 19597,15871 19562,15743 19487,15612 19411,15481 19317,15387 19186,15311 19055,15236 18927,15201 18776,15201 Z"/>
       </g>
      </g>
      <g class="com.sun.star.drawing.ClosedBezierShape">
       <g id="id5">
        <rect class="BoundingBox" stroke="none" fill="none" x="10254" y="8062" width="5744" height="9128"/>
        <path fill="rgb(255,255,255)" stroke="none" d="M 11074,17189 L 15177,17189 C 15328,17189 15456,17155 15587,17079 15718,17004 15812,16910 15887,16779 15963,16648 15997,16520 15997,16369 15997,16218 15963,16089 15887,15959 15812,15828 15718,15734 15587,15658 15456,15583 15328,15548 15177,15548 L 11074,15548 C 10923,15548 10795,15583 10664,15658 10533,15734 10439,15828 10364,15959 10288,16089 10254,16218 10254,16369 10254,16520 10288,16648 10364,16779 10439,16910 10533,17004 10664,17079 10795,17155 10923,17189 11074,17189 Z M 11074,13446 L 15177,13446 C 15328,13446 15456,13412 15587,13336 15718,13261 15812,13167 15887,13036 15963,12905 15997,12777 15997,12626 15997,12475 15963,12346 15887,12215 15812,12085 15718,11991 15587,11915 15456,11840 15328,11805 15177,11805 L 11074,11805 C 10923,11805 10795,11840 10664,11915 10533,11991 10439,12085 10364,12215 10288,12346 10254,12475 10254,12626 10254,12777 10288,12905 10364,13036 10439,13167 10533,13261 10664,13336 10795,13412 10923,13446 11074,13446 Z M 11074,9703 L 15177,9703 C 15328,9703 15456,9668 15587,9593 15718,9517 15812,9423 15887,9293 15963,9162 15997,9033 15997,8882 15997,8731 15963,8603 15887,8472 15812,8341 15718,8247 15587,8172 15456,8096 15328,8062 15177,8062 L 11074,8062 C 10923,8062 10795,8096 10664,8172 10533,8247 10439,8341 10364,8472 10288,8603 10254,8731 10254,8882 10254,9033 10288,9162 10364,9293 10439,9423 10533,9517 10664,9593 10795,9668 10923,9703 11074,9703 Z"/>
       </g>
      </g>
      <g class="com.sun.star.drawing.PolyPolygonShape">
       <g id="id6">
        <rect class="BoundingBox" stroke="none" fill="none" x="6699" y="4128" width="12945" height="5973"/>
        <path fill="rgb(255,255,255)" stroke="none" d="M 7521,10100 L 7576,10098 7630,10093 7682,10085 7734,10073 7784,10058 7833,10039 7882,10016 7931,9990 7978,9961 8022,9929 8063,9896 8102,9861 8138,9822 8171,9781 8202,9737 8232,9690 8258,9641 8280,9591 8299,9542 8315,9492 8327,9441 8335,9389 8340,9335 8342,9280 8342,7156 8349,7014 8370,6877 8404,6744 8451,6617 8509,6496 8578,6382 8658,6275 8748,6176 8846,6087 8953,6007 9067,5937 9188,5879 9315,5832 9448,5798 9585,5777 9727,5770 16616,5770 16710,5773 16800,5781 16889,5795 16975,5815 17059,5841 17143,5873 17225,5911 17308,5956 17388,6005 17463,6058 17532,6114 17597,6175 17658,6239 17714,6309 17766,6384 17816,6464 17860,6546 17899,6629 17931,6712 17957,6797 17977,6883 17991,6971 17999,7062 18002,7156 18002,9280 18003,9335 18008,9389 18017,9441 18029,9492 18044,9542 18063,9591 18085,9641 18112,9690 18141,9737 18172,9781 18206,9822 18241,9861 18280,9896 18321,9929 18365,9961 18412,9990 18461,10016 18510,10039 18559,10058 18610,10073 18661,10085 18713,10093 18767,10098 18823,10100 18878,10098 18932,10093 18984,10085 19035,10073 19085,10058 19135,10039 19184,10016 19233,9990 19280,9961 19324,9929 19365,9896 19404,9861 19439,9822 19473,9781 19504,9737 19533,9690 19559,9641 19582,9591 19601,9542 19616,9492 19628,9441 19636,9389 19641,9335 19643,9280 19643,7156 19636,6951 19618,6753 19587,6560 19544,6372 19487,6188 19417,6005 19334,5824 19237,5644 19129,5469 19014,5306 18891,5154 18759,5013 18617,4881 18465,4758 18303,4643 18128,4535 17947,4437 17766,4354 17584,4284 17400,4228 17212,4184 17019,4153 16821,4135 16616,4129 9726,4129 9521,4135 9323,4153 9130,4184 8942,4228 8758,4284 8576,4354 8395,4437 8215,4535 8040,4643 7877,4758 7725,4881 7583,5013 7451,5154 7328,5306 7213,5469 7106,5644 7008,5824 6925,6005 6855,6188 6798,6372 6755,6560 6724,6753 6706,6951 6700,7156 6700,9280 6701,9335 6706,9388 6715,9440 6727,9491 6742,9541 6761,9591 6783,9640 6810,9689 6839,9736 6870,9780 6904,9821 6940,9860 6978,9895 7019,9929 7063,9960 7111,9990 7160,10016 7209,10038 7258,10057 7308,10073 7359,10085 7411,10093 7465,10098 7521,10100 Z"/>
       </g>
      </g>
     </g>
    </g>
   </g>
  </g>
 </g>
</svg>